<?xml version="1.0" standalone="no"?>
<!DOCTYPE svg PUBLIC "-//W3C//DTD SVG 20010904//EN"
 "http://www.w3.org/TR/2001/REC-SVG-20010904/DTD/svg10.dtd">
<svg version="1.0" xmlns="http://www.w3.org/2000/svg"
 width="937.000000pt" height="1144.000000pt" viewBox="0 0 937.000000 1144.000000"
 preserveAspectRatio="xMidYMid meet">

<g transform="translate(0.000000,1144.000000) scale(0.100000,-0.100000)"
fill="#000000" stroke="none">
<path d="M3080 9823 c-52 -7 -60 -18 -60 -84 0 -150 -116 -1030 -201 -1529
-80 -467 -106 -586 -322 -1440 -161 -636 -216 -933 -237 -1284 -24 -398 35
-788 165 -1096 85 -200 193 -356 380 -549 142 -146 262 -239 447 -346 107 -62
141 -86 156 -114 34 -60 52 -152 52 -257 0 -176 -44 -305 -183 -535 -134 -223
-171 -293 -205 -389 -133 -379 -5 -687 333 -799 107 -36 209 -53 475 -80 344
-36 507 -44 885 -44 638 0 993 42 1255 149 139 56 231 131 295 239 71 123 76
331 11 522 -31 90 -61 148 -167 325 -207 341 -255 502 -218 728 10 67 48 161
76 192 8 9 68 47 132 83 167 94 286 183 409 304 280 276 427 528 512 884 45
189 61 314 67 537 11 415 -44 763 -242 1540 -266 1043 -324 1345 -465 2425
-24 185 -50 449 -50 516 0 55 -20 78 -82 90 -42 9 -3148 20 -3218 12z m3225
-106 c14 -22 24 -115 70 -667 51 -616 150 -1185 345 -1985 244 -1001 291
-1263 294 -1652 1 -168 -2 -205 -14 -217 -13 -12 -41 -13 -180 -6 -827 43
-3141 45 -4196 4 l-172 -7 -7 24 c-14 41 -7 378 10 524 31 272 75 494 215
1075 190 788 233 989 294 1357 81 488 136 1025 149 1430 2 62 6 115 9 119 3 3
703 7 1554 10 851 2 1550 6 1552 9 15 14 63 3 77 -18z m-1355 -4596 c-157 -3
-402 -3 -545 0 -183 4 -99 5 285 5 414 0 476 -1 260 -5z m-2100 -91 c107 -6
551 -15 985 -20 1082 -13 2432 3 3027 36 99 6 118 5 123 -8 3 -8 -4 -59 -16
-114 -84 -392 -294 -744 -611 -1024 -146 -129 -343 -285 -458 -362 -161 -108
-168 -117 -131 -178 17 -29 17 -35 4 -93 -20 -81 -12 -219 17 -312 30 -95 102
-236 196 -380 201 -312 244 -410 251 -575 6 -118 -3 -154 -58 -247 -37 -60
-121 -131 -198 -166 -70 -31 -257 -65 -429 -77 -86 -6 -193 -16 -237 -21 -44
-6 -269 -13 -500 -16 -385 -5 -433 -3 -582 16 -124 15 -174 26 -211 45 -55 28
-122 97 -122 126 0 41 38 51 232 61 383 21 1353 -22 1392 -61 6 -6 -26 -26
-92 -57 -74 -34 -102 -51 -102 -65 0 -26 40 -32 133 -18 137 20 230 48 272 82
33 27 36 35 30 62 -4 17 -6 49 -5 71 6 96 4 323 -2 360 -6 35 -5 38 6 22 17
-22 32 -101 46 -247 13 -122 21 -143 54 -138 29 4 45 56 45 154 1 68 5 86 23
109 l22 28 -22 96 c-40 174 -184 420 -296 506 -44 33 -71 28 -62 -13 3 -15 12
-56 20 -92 8 -36 24 -87 36 -114 37 -81 15 -156 -57 -199 -81 -47 -681 -117
-1005 -117 -221 0 -533 25 -651 51 -38 9 -53 19 -68 43 -39 65 -18 130 76 227
36 37 65 74 65 82 0 27 -21 30 -48 8 -44 -35 -122 -69 -202 -87 -41 -9 -91
-25 -112 -35 -128 -65 -109 -209 37 -278 77 -36 248 -69 420 -81 207 -15 211
-18 50 -39 -196 -26 -363 -88 -429 -161 -20 -22 -42 -40 -50 -40 -20 0 -80
102 -111 186 -37 100 -57 144 -66 144 -7 0 -15 -43 -22 -120 l-3 -35 -13 30
c-30 72 -44 95 -57 95 -20 0 -32 -38 -26 -88 4 -37 1 -46 -18 -59 -19 -14 -22
-22 -16 -60 12 -90 84 -183 141 -183 18 0 155 -125 155 -142 0 -26 -148 11
-223 55 -59 35 -124 107 -155 175 -25 52 -27 67 -26 182 0 112 3 133 28 200
44 117 84 194 185 350 117 182 192 322 226 425 32 96 43 235 26 324 -10 51
-10 65 4 90 16 32 19 68 9 96 -4 9 -59 52 -123 95 -194 131 -222 166 -73 91
135 -68 272 -109 272 -83 0 15 -31 36 -155 109 -188 111 -290 188 -426 323
-216 215 -353 425 -414 635 -21 72 -27 110 -26 190 0 55 -2 108 -5 118 -8 26
-57 47 -112 47 -84 0 -87 -20 -43 -222 31 -139 65 -236 126 -359 48 -98 12
-54 -59 71 -69 121 -120 251 -157 397 -29 115 -36 173 -21 187 4 4 45 5 92 2
47 -3 173 -11 280 -16z m2800 -3184 c0 -35 -10 -56 -26 -56 -16 0 -18 33 -4
61 15 26 30 24 30 -5z"/>
<path d="M3152 9633 c-5 -10 -12 -97 -16 -193 -27 -762 -152 -1633 -340 -2365
-29 -115 -88 -343 -129 -506 -105 -409 -146 -610 -178 -874 -14 -114 -14 -401
0 -438 11 -29 41 -36 58 -14 6 6 13 80 17 162 20 452 53 639 240 1385 176 703
264 1165 330 1750 49 426 87 1051 67 1089 -14 26 -37 27 -49 4z"/>
<path d="M2925 4980 c-17 -19 -17 -27 -6 -103 35 -233 165 -479 356 -672 70
-71 222 -191 231 -182 3 2 -34 44 -82 93 -165 170 -283 351 -348 533 -15 40
-38 130 -51 199 -14 69 -30 131 -36 139 -16 19 -43 16 -64 -7z"/>
<path d="M6843 4962 c-7 -5 -26 -55 -42 -113 -38 -133 -78 -230 -146 -349
-240 -426 -797 -889 -1235 -1028 -130 -41 -174 -51 -334 -72 -76 -10 -143 -23
-148 -28 -39 -39 210 -58 363 -27 344 69 632 236 986 570 244 231 392 418 493
620 117 236 154 485 63 427z"/>
<path d="M2780 4930 c-26 -49 61 -290 105 -290 19 0 19 26 0 101 -9 32 -19 92
-23 131 -7 73 -7 73 -39 76 -24 2 -34 -2 -43 -18z"/>
<path d="M6673 4938 c-6 -7 -16 -35 -22 -63 -31 -127 -121 -332 -204 -465
-117 -187 -309 -393 -497 -533 -164 -122 -170 -127 -170 -143 0 -20 27 -29 54
-16 45 20 262 191 355 278 145 137 271 294 358 448 78 137 179 421 171 478 -3
26 -30 35 -45 16z"/>
<path d="M2890 4549 c-32 -59 69 -240 214 -384 81 -80 151 -123 181 -111 24 9
6 37 -91 138 -85 90 -180 223 -208 293 -19 45 -53 85 -72 85 -7 0 -18 -9 -24
-21z"/>
<path d="M3414 3976 c-9 -24 13 -52 83 -105 114 -85 406 -228 450 -219 24 4
-23 39 -152 113 -55 32 -138 86 -185 120 -142 105 -183 124 -196 91z"/>
<path d="M4220 3560 c0 -5 12 -10 26 -10 14 0 23 4 19 10 -3 6 -15 10 -26 10
-10 0 -19 -4 -19 -10z"/>
<path d="M3862 3348 c-100 -100 356 -187 918 -175 135 3 297 12 360 21 264 35
484 92 478 125 -5 23 -63 20 -468 -24 -159 -17 -598 -20 -751 -5 -57 6 -174
24 -260 40 -166 32 -257 38 -277 18z"/>
<path d="M5473 3114 c-69 -33 -167 -52 -319 -64 -68 -5 -133 -14 -144 -20 -27
-14 -71 -12 -146 6 -50 13 -71 14 -90 6 -27 -13 -31 -34 -10 -55 18 -17 264
-57 384 -62 85 -3 87 -4 259 -89 96 -47 180 -86 188 -86 25 0 26 18 6 95 -11
42 -23 118 -27 168 -7 96 -16 128 -37 126 -7 0 -35 -12 -64 -25z"/>
<path d="M3827 3069 c-4 -51 -2 -73 14 -108 25 -57 24 -80 -6 -121 -14 -19
-25 -48 -25 -65 0 -22 -6 -33 -22 -40 -20 -9 -23 -16 -20 -65 2 -36 -3 -68
-14 -93 -16 -35 -16 -39 -1 -54 14 -14 20 -13 74 17 140 78 223 152 223 199 0
11 11 32 24 48 28 34 60 126 52 151 -9 27 -114 130 -161 158 -23 13 -62 27
-87 30 l-45 6 -6 -63z"/>
</g>
</svg>
